<svg xmlns="http://www.w3.org/2000/svg" width="87" height="86" viewBox="0 0 87 86"><g><g><path fill="#252c3a" d="M71.327 42.71a4.266 4.266 0 0 1-5.457-2.6h-8.82v2.865a1.43 1.43 0 0 1-1.427 1.432h-5.705v2.865h4.28c.787 0 1.425.642 1.425 1.433v3.128a4.29 4.29 0 0 1 2.608 2.62 4.302 4.302 0 0 1-2.608 5.484 4.274 4.274 0 0 1-5.46-2.62 4.302 4.302 0 0 1 2.607-5.484v-1.696h-4.279a1.429 1.429 0 0 1-1.425-1.432v-4.298h-2.853v27.268h10.332c.06-.003.12-.004.18-.004 2.26-.005 4.094 1.831 4.099 4.1 0 .996-.333 1.963-.948 2.745a4.287 4.287 0 0 1 1.312 3.086l.001.046c.015 2.389-1.901 4.337-4.28 4.352H30.665c-2.362-.002-4.276-1.925-4.279-4.297a4.426 4.426 0 0 1 1.31-3.172 4.266 4.266 0 0 1-.945-2.66 4.078 4.078 0 0 1 1.713-3.4c-.313-3.628-3.194-7.795-5.783-11.502-1.224-1.754-2.38-3.41-3.267-4.985-4.937-8.776-8.003-19.048-8.003-26.807C11.41 12.845 25.192.051 42.787.051c.788 0 1.426.64 1.426 1.432v22.87h5.705v-7.427a4.303 4.303 0 0 1 0-8.104 4.274 4.274 0 0 1 5.46 2.62 4.303 4.303 0 0 1-2.607 5.484v7.427h2.853c.787 0 1.425.641 1.425 1.432v2.865h4.279v-4.562a4.288 4.288 0 0 1-2.608-2.619c-.788-2.238.38-4.693 2.608-5.484a4.274 4.274 0 0 1 5.46 2.62c.788 2.237-.38 4.693-2.608 5.483v5.995a1.43 1.43 0 0 1-1.426 1.432H57.05v5.73h8.82a4.274 4.274 0 0 1 4.016-2.865 4.272 4.272 0 0 1 4.031 2.85c.792 2.231-.367 4.686-2.59 5.48zm-10-22.655a1.43 1.43 0 0 0 1.427 1.432 1.43 1.43 0 0 0 1.426-1.432 1.43 1.43 0 0 0-1.426-1.433c-.787.001-1.425.642-1.426 1.433zm-30.073 51.62h10.107V55.806a24.818 24.818 0 0 1-1.179-.114 1.428 1.428 0 0 1-1.223-1.127l-.434-2.075a18.33 18.33 0 0 1-1.07-.29l-1.422 1.593a1.424 1.424 0 0 1-1.621.362 21.386 21.386 0 0 1-4.489-2.634 1.438 1.438 0 0 1-.496-1.59l.655-2.001c-.27-.255-.531-.52-.786-.79l-1.993.658a1.43 1.43 0 0 1-1.583-.498 21.537 21.537 0 0 1-2.622-4.509 1.438 1.438 0 0 1 .36-1.628l1.587-1.427c-.107-.354-.202-.709-.286-1.064l-2.218-.445a1.43 1.43 0 0 1-1.147-1.405v-4.884c0-.683.48-1.271 1.146-1.405l2.218-.445c.085-.356.18-.71.287-1.064l-1.586-1.427a1.436 1.436 0 0 1-.36-1.629 21.517 21.517 0 0 1 2.621-4.508 1.43 1.43 0 0 1 1.584-.498l1.992.657c.254-.27.517-.534.786-.789l-.654-2.003c-.19-.582.009-1.222.496-1.59a21.452 21.452 0 0 1 4.487-2.632 1.42 1.42 0 0 1 1.621.362l1.422 1.592c.356-.108.713-.204 1.07-.29l.436-2.076c.125-.599.617-1.052 1.222-1.125.414-.051.8-.086 1.179-.114V2.946c-15.308.662-27.099 11.946-27.099 26.231 0 7.184 2.997 17.152 7.634 25.396.818 1.455 1.936 3.055 3.12 4.751 2.678 3.835 5.655 8.13 6.238 12.351zm10.107-50.103v-4.925l-.237 1.128a1.428 1.428 0 0 1-1.143 1.115 15.37 15.37 0 0 0-2.484.672 1.427 1.427 0 0 1-1.545-.392l-1.341-1.503a18.61 18.61 0 0 0-2.146 1.266l.618 1.893c.18.553.01 1.16-.432 1.537a15.993 15.993 0 0 0-1.826 1.837 1.43 1.43 0 0 1-1.533.434l-1.884-.623c-.468.69-.889 1.41-1.26 2.157l1.495 1.346c.433.39.587 1.002.391 1.551a15.71 15.71 0 0 0-.67 2.497 1.429 1.429 0 0 1-1.124 1.15l-1.994.4v2.535l1.994.4a1.43 1.43 0 0 1 1.125 1.15c.154.85.378 1.684.67 2.496a1.44 1.44 0 0 1-.391 1.552l-1.497 1.347c.371.746.793 1.467 1.26 2.157l1.885-.623a1.43 1.43 0 0 1 1.532.434c.557.66 1.168 1.273 1.826 1.833.443.377.615.986.434 1.541l-.62 1.893c.687.47 1.404.893 2.147 1.266l1.342-1.503a1.422 1.422 0 0 1 1.544-.393c.808.293 1.64.519 2.485.673a1.43 1.43 0 0 1 1.143 1.116l.236 1.128v-4.926c-6.492-.736-11.401-6.247-11.41-12.808.009-6.562 4.918-12.072 11.41-12.808zM32.904 32.96c-.78 5.474 3.006 10.548 8.457 11.332V24.467c-4.385.63-7.83 4.09-8.457 8.494zm23.434 48.692a1.456 1.456 0 0 0-1.428-1.484H30.664a1.43 1.43 0 0 0-1.426 1.433l-.002.05a1.456 1.456 0 0 0 1.428 1.483H54.91a1.43 1.43 0 0 0 1.426-1.432l.002-.05zm-1.793-7.113H31.029a1.29 1.29 0 0 0-1.428 1.28 1.456 1.456 0 0 0 1.428 1.484h23.516a1.43 1.43 0 0 0 1.42-1.577 1.308 1.308 0 0 0-1.42-1.187zM52.77 55.867a1.43 1.43 0 0 0 1.426 1.433 1.43 1.43 0 0 0 1.426-1.433 1.43 1.43 0 0 0-1.426-1.432 1.43 1.43 0 0 0-1.426 1.432zm-2.853-42.975c0 .791.639 1.433 1.426 1.433a1.43 1.43 0 0 0 1.427-1.433 1.43 1.43 0 0 0-1.427-1.432 1.43 1.43 0 0 0-1.426 1.432zm4.279 14.325h-9.984v14.325h9.984zm17.114 11.46a1.43 1.43 0 0 0-1.426-1.432 1.43 1.43 0 0 0-1.426 1.432 1.43 1.43 0 0 0 1.426 1.433 1.43 1.43 0 0 0 1.426-1.433zM59.04 66.916a21.5 21.5 0 0 0-1.178 2.468l-2.652-1.055c.385-.96.83-1.895 1.332-2.798zm3.052-4.794a88.552 88.552 0 0 0-1.602 2.38l-2.394-1.555a87.208 87.208 0 0 1 1.655-2.462zm3.317-4.878a64.977 64.977 0 0 1-1.65 2.483l-2.343-1.634a66.721 66.721 0 0 0 1.58-2.374zm2.837-5.284c-.428.9-.875 1.788-1.341 2.665l-2.515-1.351c.445-.84.873-1.689 1.282-2.548zm2.323-5.484a70.953 70.953 0 0 1-1.102 2.767l-2.626-1.122c.374-.88.727-1.767 1.058-2.652zm3.596-17.299c0 .88-.04 1.81-.12 2.762l-2.843-.241c.074-.873.11-1.722.11-2.52l-.001-.264 2.852-.022zm-.197-3.354l-2.833.338a24.865 24.865 0 0 0-.475-2.715l2.777-.652c.233.999.41 2.01.53 3.029zm-1.394-5.98l-2.687.959a25.076 25.076 0 0 0-1.064-2.543l2.564-1.254c.448.923.844 1.87 1.187 2.837zm-2.678-5.52l-2.41 1.53a26.114 26.114 0 0 0-1.596-2.253l2.234-1.782a28.867 28.867 0 0 1 1.772 2.504zm-3.797-4.805l-2.034 2.009a26.998 26.998 0 0 0-2.033-1.873l1.818-2.208a29.983 29.983 0 0 1 2.249 2.072zm-4.69-3.905L59.816 7.99a28.656 28.656 0 0 0-2.37-1.439l1.357-2.52a32.045 32.045 0 0 1 2.605 1.58zm-5.345-2.9L54.947 5.35a29.22 29.22 0 0 0-2.599-.964l.864-2.731c.973.31 1.933.666 2.851 1.059zM50.283.865l-.617 2.798c-.896-.2-1.816-.36-2.736-.48L47.295.34c1.004.131 2.01.308 2.988.524zm-47.43 76.49h2.852v2.866H2.852zm0 5.73h2.852v2.866H2.852zm2.852-2.864h2.852v2.864H5.705zM0 80.22h2.852v2.864H0zM81.295 0h2.853v2.865h-2.853zm0 5.73h2.853v2.865h-2.853zm2.853-2.865H87V5.73h-2.852zm-5.705 0h2.852V5.73h-2.852z"/></g></g></svg>