<svg xmlns="http://www.w3.org/2000/svg" width="156" height="158" viewBox="0 0 78 79"><g><g><g><path fill="#69cfbb" d="M63.47 44.94c-3.197 13.93-11.148 24.094-22.992 29.395L38.995 75l-1.484-.665C25.667 69.034 17.716 58.87 14.519 44.94c-2.357-10.272-1.302-18.954-1.256-19.32l.418-3.306 3.368.201c.03.002.199.008.48.008 2.764 0 12.286-.594 18.699-8.227L38.995 11l2.768 3.295c6.411 7.635 15.932 8.227 18.697 8.227.28 0 .452-.006.494-.009l3.342-.174.428 3.28c.047.366 1.102 9.048-1.255 19.32zm-.691-19.079l-.193-1.498-1.524.085c-.026.001-.237.012-.602.012-2.981 0-13.25-.642-20.208-8.928l-1.257-1.498-1.259 1.498c-6.958 8.284-17.225 8.928-20.208 8.928-.365 0-.576-.01-.598-.012l-1.53-.09-.19 1.503c-.045.35-1.06 8.706 1.222 18.65 3.056 13.316 10.624 23.018 21.888 28.06l.675.3.674-.3C50.932 67.529 58.5 57.827 61.556 44.51c2.282-9.944 1.267-18.3 1.223-18.65zm-45.947.2s13.508.806 22.163-9.497c8.653 10.303 22.162 9.497 22.162 9.497S65.356 59.3 38.995 71.1C12.63 59.3 16.832 26.061 16.832 26.061z"/></g><g><path fill="#f36b7f" d="M38.495-.002l1.392 2.964 3.11.474-2.25 2.309.53 3.258-2.782-1.54-2.781 1.54.53-3.258-2.25-2.309 3.11-.474z"/></g><g><path fill="#f8cf61" d="M54.495 7.998l1.392 2.964 3.11.474-2.25 2.309.53 3.258-2.782-1.54-2.781 1.54.53-3.258-2.25-2.309 3.11-.474z"/></g><g><path fill="#f8cf61" d="M22.495 7.998l1.392 2.964 3.11.474-2.25 2.309.531 3.258-2.783-1.54-2.781 1.54.53-3.258-2.25-2.309 3.11-.474z"/></g><g><path fill="#252c3a" d="M64.363 59.514c.168.404.288.873.35 1.405a7.668 7.668 0 0 1-.059 1.738c-.142 1.018-.49 2.047-.982 3.01a46.207 46.207 0 0 0 1.91-2.23c.475-.588.928-1.181 1.36-1.78-.329-.272-.594-.667-.786-1.158a5.401 5.401 0 0 1-.3-1.181 8.242 8.242 0 0 1-.109-1.448 14.059 14.059 0 0 1 1.315-5.783c.575.123 1.11.49 1.533 1.104.209.306.401.679.537 1.105.129.422.218.905.259 1.446.078.813-.018 1.645-.209 2.468a41.96 41.96 0 0 0 2.238-4.428c-.303-.154-.578-.413-.814-.759-.326-.491-.606-1.174-.791-2a8.053 8.053 0 0 1-.17-1.248 8.812 8.812 0 0 1-.054-1.264c.006-.416.068-.817.112-1.214.045-.398.119-.779.222-1.137.927.014 1.933.876 2.399 2.56a7.2 7.2 0 0 1 .243 2.11 42.75 42.75 0 0 0 1.165-3.942c-.57-.126-1.081-.727-1.468-1.697a6.01 6.01 0 0 1-.409-1.717c-.041-.578-.08-1.16.008-1.68.637-.067 1.355.45 1.86 1.556a6.013 6.013 0 0 1 .399 1.8c.241-1.178.413-2.24.547-3.153a31.036 31.036 0 0 1-.178 3.097c.219-.55.511-1.086.866-1.561.687-1.01 1.48-1.478 2.099-1.297-.025.596-.097 1.248-.334 1.87a6.767 6.767 0 0 1-.912 1.724c-.658.87-1.41 1.233-1.976 1.157a34.51 34.51 0 0 1-.915 4.025 12.45 12.45 0 0 1 1.332-1.704c1.258-1.337 2.46-1.924 3.345-1.544-.069.45-.174.914-.312 1.38-.138.467-.357.924-.578 1.372-.228.447-.484.88-.764 1.284a9.381 9.381 0 0 1-.979 1.092c-.684.655-1.356 1.049-1.976 1.204-.417.109-.794.112-1.117.022a37.385 37.385 0 0 1-2.126 4.531 21.166 21.166 0 0 1 1.936-1.62 9.784 9.784 0 0 1 1.367-.836c.433-.221.83-.39 1.215-.49.763-.204 1.428-.15 1.916.182-.363 1.111-1.019 2.228-1.795 3.243-.393.505-.855.964-1.316 1.391-.457.43-.96.802-1.484 1.107a7.976 7.976 0 0 1-1.465.7 4.79 4.79 0 0 1-1.296.244c-.541.02-1.002-.081-1.369-.284a37.19 37.19 0 0 1-1.392 1.833 41.696 41.696 0 0 1-1.927 2.235 22.584 22.584 0 0 1 2.904-1.541 12.326 12.326 0 0 1 1.798-.64 6.933 6.933 0 0 1 1.54-.28c.945-.053 1.708.166 2.187.67-1.442 2.425-4.118 4.665-6.845 5.571-2.41.802-4.2.485-5.075-.403a46.498 46.498 0 0 1-5.082 3.826c-3.48 2.258-6.648 3.703-8.958 4.446 2.182-1.046 5.18-2.72 8.495-5.1a55.293 55.293 0 0 0 4.854-3.926c-.817-.949-.95-2.678-.457-4.78.558-2.4 1.674-4.672 2.965-6.322.637.282 1.167.831 1.503 1.64zM75.648 38.5a8.936 8.936 0 0 1-.271 2.076c-.174.6-.44 1.09-.71 1.42-.223-.37-.374-.877-.493-1.475a8.542 8.542 0 0 1-.19-2.024c.008-1.471.24-2.758.72-3.499.51.667.953 1.972.944 3.502z"/></g><g><path fill="#252c3a" d="M15.14 58.875c1.29 1.65 2.407 3.922 2.965 6.321.492 2.103.36 3.832-.457 4.781a55.292 55.292 0 0 0 4.854 3.926c3.315 2.38 6.313 4.054 8.495 5.1-2.31-.743-5.478-2.188-8.958-4.446a46.516 46.516 0 0 1-5.082-3.826c-.875.888-2.665 1.205-5.075.403-2.727-.907-5.403-3.146-6.845-5.57.48-.505 1.242-.724 2.186-.672.473.026.99.12 1.541.28.563.152 1.17.362 1.798.64.996.437 1.975.96 2.904 1.542a41.686 41.686 0 0 1-1.927-2.235 37.185 37.185 0 0 1-1.392-1.833c-.367.203-.828.304-1.369.284a4.78 4.78 0 0 1-1.296-.243 8.01 8.01 0 0 1-1.465-.7 8.194 8.194 0 0 1-1.484-1.108c-.461-.427-.923-.886-1.316-1.391-.776-1.015-1.432-2.132-1.795-3.243.488-.333 1.153-.386 1.916-.183.384.1.782.27 1.215.492.44.218.899.496 1.367.835a21.155 21.155 0 0 1 1.936 1.62 37.389 37.389 0 0 1-2.126-4.53c-.323.09-.7.086-1.117-.023-.62-.155-1.292-.549-1.976-1.204a9.337 9.337 0 0 1-.98-1.092c-.279-.404-.535-.837-.763-1.284-.221-.448-.44-.905-.578-1.372a10.427 10.427 0 0 1-.312-1.38c.885-.38 2.086.207 3.345 1.544.49.52.936 1.1 1.332 1.704a34.519 34.519 0 0 1-.915-4.025c-.566.076-1.318-.286-1.976-1.157a6.758 6.758 0 0 1-.912-1.724c-.237-.622-.31-1.274-.334-1.87.62-.18 1.412.287 2.099 1.297.355.475.647 1.01.866 1.56a31.032 31.032 0 0 1-.178-3.096c.134.913.306 1.975.547 3.154l.001-.014c.046-.62.177-1.239.398-1.787.505-1.105 1.223-1.623 1.86-1.556.089.52.05 1.102.008 1.68a6.007 6.007 0 0 1-.409 1.717c-.387.97-.899 1.571-1.468 1.698.301 1.23.68 2.553 1.165 3.941a7.2 7.2 0 0 1 .243-2.11c.466-1.684 1.472-2.545 2.4-2.56.102.358.176.74.22 1.137.045.397.107.798.113 1.214.012.415-.006.839-.055 1.264-.023.417-.08.835-.169 1.248-.185.826-.465 1.508-.791 2-.236.346-.51.605-.814.759a41.962 41.962 0 0 0 2.238 4.428c-.19-.823-.287-1.655-.209-2.469.041-.54.13-1.023.259-1.445.136-.426.328-.799.537-1.105.424-.614.958-.981 1.533-1.104a14.058 14.058 0 0 1 1.315 5.784 8.242 8.242 0 0 1-.11 1.447c-.065.439-.16.832-.299 1.18-.192.492-.457.887-.786 1.16.432.598.885 1.191 1.36 1.779.622.775 1.26 1.518 1.91 2.23-.492-.964-.84-1.992-.982-3.01a7.668 7.668 0 0 1-.06-1.738c.063-.532.183-1 .35-1.405.337-.808.867-1.357 1.504-1.64zM3.295 35.998c.48.741.713 2.028.721 3.5a8.54 8.54 0 0 1-.19 2.023c-.12.598-.27 1.105-.493 1.476-.27-.332-.536-.82-.71-1.421a8.928 8.928 0 0 1-.271-2.076c-.01-1.53.435-2.835.943-3.502z"/></g><g><g><text fill="#fff" dominant-baseline="text-before-edge" font-family="'Rubik','Rubik-Bold'" font-size="36" font-style="none" font-weight="700" transform="translate(29 30)"><tspan style="font-kerning:normal">E</tspan></text></g></g></g></g></svg>