<svg xmlns="http://www.w3.org/2000/svg" width="71" height="71" viewBox="0 0 71 71"><g><g><path fill="#252c3a" d="M46.499 37.062c0 5.084-4.1 9.22-9.14 9.22-5.04 0-9.14-4.136-9.14-9.22 0-5.084 4.1-9.22 9.14-9.22 5.04 0 9.14 4.136 9.14 9.22zm-3.459 0c0-3.16-2.548-5.731-5.681-5.731s-5.681 2.57-5.681 5.73c0 3.161 2.548 5.732 5.68 5.732 3.134 0 5.682-2.57 5.682-5.731zm21.853 0c7.244 12.64 8.115 24.085 2.229 30.024C64.524 69.706 60.864 71 56.508 71c-5.516 0-12.148-2.076-19.15-6.158C30.357 68.923 23.725 70.999 18.21 71c-4.356 0-8.015-1.294-10.612-3.915C1.71 61.148 2.579 49.703 9.82 37.062c-1.426-2.49-2.622-4.97-3.568-7.395-.035 0-.07.003-.106.003C2.757 29.67 0 26.888 0 23.468a6.211 6.211 0 0 1 3.72-5.697C3.715 13.311 5.04 9.62 7.598 7.04c5.885-5.94 17.23-5.062 29.762 2.244 7.339-4.278 14.43-6.424 20.22-6.132C58.638 1.27 60.639 0 62.93 0c3.389 0 6.147 2.781 6.147 6.2a6.21 6.21 0 0 1-.546 2.55c2.135 3.135 2.908 7.38 2.235 12.37-.659 4.883-2.686 10.376-5.872 15.94zM60.24 6.201c0 1.495 1.207 2.712 2.69 2.712 1.482 0 2.688-1.217 2.688-2.713 0-1.495-1.206-2.712-2.689-2.712-1.482 0-2.689 1.217-2.689 2.712zm-19.515 5.182c4.217 2.806 8.286 6.175 12.127 10.05 3.84 3.875 7.18 7.979 9.958 12.23 2.437-4.593 3.994-9.049 4.529-13.014.498-3.694.084-6.82-1.196-9.165a6.07 6.07 0 0 1-3.214.918c-3.252 0-5.921-2.562-6.132-5.79-4.593-.078-10.168 1.578-16.072 4.771zM8.836 23.468c0-1.495-1.206-2.712-2.689-2.712-1.482 0-2.689 1.217-2.689 2.712 0 1.496 1.207 2.713 2.69 2.713 1.482 0 2.688-1.217 2.688-2.713zm3.07 10.197c2.78-4.253 6.12-8.357 9.96-12.231 3.84-3.874 7.909-7.243 12.124-10.048-10.3-5.558-19.526-6.342-23.947-1.88-1.817 1.832-2.793 4.526-2.863 7.85 2.9.497 5.115 3.048 5.115 6.112a6.215 6.215 0 0 1-2.73 5.152 50.29 50.29 0 0 0 2.341 5.045zM33.99 62.738c-4.215-2.805-8.284-6.174-12.124-10.047-3.84-3.874-7.179-7.978-9.96-12.23-5.51 10.39-6.287 19.697-1.864 24.158 4.422 4.462 13.648 3.677 23.948-1.88zm3.369-1.963c4.542-2.85 8.927-6.395 13.046-10.552 4.122-4.157 7.636-8.58 10.458-13.16-2.822-4.582-6.337-9.005-10.458-13.163-4.12-4.156-8.504-7.701-13.046-10.55-4.542 2.849-8.927 6.394-13.047 10.55-4.12 4.157-7.635 8.58-10.459 13.162 2.825 4.582 6.34 9.006 10.459 13.161 4.12 4.157 8.505 7.702 13.047 10.552zm25.45-20.314c-2.778 4.25-6.117 8.355-9.958 12.23-3.84 3.873-7.908 7.242-12.124 10.047 10.3 5.558 19.526 6.342 23.95 1.88 4.422-4.46 3.643-13.767-1.868-24.157z"/></g></g></svg>