<svg xmlns="http://www.w3.org/2000/svg" width="83" height="83" viewBox="0 0 83 83"><g><g><path fill="#252c3a" d="M44.574 81.653A8.406 8.406 0 0 1 40.012 83H8.525a8.525 8.525 0 0 1-7.348-12.848L17.291 42.76v-22.01c0-.954.775-1.728 1.73-1.728h8.645c.955 0 1.73.774 1.73 1.729v6.095a29.344 29.344 0 0 1 3.458-1.309V1.73c0-.955.774-1.729 1.729-1.729h12.104c.955 0 1.73.774 1.73 1.73v23.315a29.44 29.44 0 0 1 16.02 10.185l-2.696 2.165a25.96 25.96 0 0 0-15.377-9.256 1.73 1.73 0 0 1-1.406-1.698V3.458h-8.646v23.386a1.73 1.73 0 0 1-1.297 1.675 25.913 25.913 0 0 0-5.62 2.174V42.71l15.563 24.058v-20.08a6.917 6.917 0 0 1 6.917-6.917h26.95a4.176 4.176 0 0 1 2.953 7.126l-3.966 3.965v23.492A8.656 8.656 0 0 1 69.166 83H53.604a8.642 8.642 0 0 1-6.853-3.38 8.388 8.388 0 0 1-2.177 2.033zm.382-7.058c0-.953-.276-1.886-.793-2.686L26.214 44.17a1.73 1.73 0 0 1-.277-.94V22.48H20.75v20.75c0 .309-.083.611-.239.877L4.15 71.906a5.066 5.066 0 0 0 4.375 7.636h31.487a4.945 4.945 0 0 0 4.944-4.947zm-33.198-1.97h8.992v3.458H8.737a1.73 1.73 0 0 1-1.492-2.605L21.927 48.52l2.981 1.751zm67.575-29.186a.717.717 0 0 0-.508-.21h-26.95a3.458 3.458 0 0 0-3.459 3.458v27.667a5.188 5.188 0 0 0 5.188 5.188h15.562a5.188 5.188 0 0 0 5.188-5.188V50.146c0-.459.182-.899.506-1.223l4.472-4.471a.716.716 0 0 0 0-1.013zm-8.438 6.707v24.208a1.73 1.73 0 0 1-1.729 1.73H62.25v-3.46h5.188V50.147zm8.646-19.886a6.052 6.052 0 1 1-12.104 0 6.052 6.052 0 0 1 12.104 0zm-3.458 0a2.594 2.594 0 1 0-5.188 0 2.594 2.594 0 0 0 5.188 0zm-3.459-12.968a5.188 5.188 0 1 1-10.375 0 5.188 5.188 0 0 1 10.375 0zm-3.458 0a1.73 1.73 0 1 0-3.458 0 1.73 1.73 0 0 0 3.458 0zm-57.062 2.593a6.052 6.052 0 1 1-12.104 0 6.052 6.052 0 0 1 12.104 0zm-3.458 0a2.594 2.594 0 1 0-5.188 0 2.594 2.594 0 0 0 5.188 0zM19.02 6.917a5.188 5.188 0 1 1-10.376 0 5.188 5.188 0 0 1 10.376 0zm-3.459 0a1.73 1.73 0 1 0-3.458 0 1.73 1.73 0 0 0 3.458 0zm36.313 43.229h5.187v3.458h-5.187zm0 6.917h3.458v3.458h-3.458zm0 6.916h5.187v3.459h-5.187zm0 6.917h3.458v3.458h-3.458zM3.458 31.126h3.458v3.457H3.458zm5.188 8.645h3.458v3.458H8.646zm29.395 6.916H41.5v3.459H38.04zm-3.458-6.916h3.458v3.458h-3.458zm-1.73-6.917h3.459v3.458h-3.458zm1.73 38.042h3.458v3.458h-3.458zm-5.187-6.917h3.458v3.459h-3.458z"/></g></g></svg>