<svg xmlns="http://www.w3.org/2000/svg" width="70" height="70" viewBox="0 0 70 70"><g><g><path fill="#252c3a" d="M69.02 14.652L47.026 36.65l16.138 16.139c.105.104.19.235.243.372L68.48 66.21a1.753 1.753 0 0 1-2.268 2.27l-13.054-5.07a1.092 1.092 0 0 1-.373-.242L41.753 52.135a1.08 1.08 0 0 1 1.528-1.528L53.55 60.875l2.897-2.898-34.084-34.084a1.08 1.08 0 0 1 1.528-1.528L35.285 33.76l.033.03 6.451 6.45.029.033L57.975 56.45l2.897-2.898-16.034-16.034a1.06 1.06 0 0 1-.21-.21L32.583 25.263h-.001c0-.002-.001-.002-.002-.002L21.154 13.834l-2.897 2.898 1.791 1.79a1.08 1.08 0 0 1-1.528 1.529l-1.791-1.792-2.898 2.898 23.41 23.41a1.085 1.085 0 0 1 .337.337l2.162 2.162a1.08 1.08 0 0 1-1.528 1.528l-1.566-1.567-21.993 21.994a3.321 3.321 0 0 1-2.365.98 3.322 3.322 0 0 1-2.364-.98l-8.95-8.95a3.347 3.347 0 0 1 0-4.728l21.994-21.994-19.93-19.93A7.291 7.291 0 0 1 .888 8.23a7.29 7.29 0 0 1 2.15-5.19A7.29 7.29 0 0 1 8.228.892a7.29 7.29 0 0 1 5.189 2.15l19.93 19.93 1.976-1.977a1.081 1.081 0 0 1 1.527 1.528l-1.975 1.976L45.497 35.12l2.123-2.122-2.53-2.53a1.08 1.08 0 0 1 1.528-1.528l2.53 2.53 2.509-2.51-5.755-5.754a1.08 1.08 0 0 1 1.528-1.528l5.755 5.754 2.51-2.509-2.53-2.529a1.08 1.08 0 0 1 1.528-1.528l2.53 2.53 2.508-2.51-2.529-2.53a1.08 1.08 0 0 1 1.528-1.527l2.53 2.53 2.509-2.51-5.755-5.755a1.08 1.08 0 1 1 1.528-1.528l5.755 5.754 2.196-2.196c.223-.223.346-.52.346-.836 0-.316-.123-.613-.346-.836l-8.95-8.95a1.174 1.174 0 0 0-.836-.346c-.316 0-.613.123-.836.346l-16.85 16.85a1.08 1.08 0 0 1-1.528-1.528L55.343.974a3.347 3.347 0 0 1 4.728 0l8.95 8.95a3.347 3.347 0 0 1 0 4.728zM24.497 34.877L2.503 56.871a1.184 1.184 0 0 0 0 1.672l8.95 8.95c.223.223.52.346.836.346.316 0 .613-.123.836-.346l2.196-2.197-5.754-5.754a1.08 1.08 0 0 1 1.528-1.528l5.754 5.755 2.51-2.51-2.53-2.529a1.08 1.08 0 0 1 1.528-1.528l2.53 2.529 2.509-2.509-2.53-2.53a1.08 1.08 0 0 1 1.529-1.527l2.529 2.529 2.51-2.51-5.756-5.754a1.08 1.08 0 0 1 1.528-1.528l5.755 5.754 2.51-2.509-2.53-2.529a1.08 1.08 0 0 1 1.528-1.528L33 47.619l2.12-2.12zM7.981 15.307l7.323-7.323-3.415-3.415a5.183 5.183 0 0 0-7.323 0 5.184 5.184 0 0 0 0 7.322zm11.645-3.001L16.832 9.51l-7.323 7.323 2.794 2.795 3.661-3.661.001-.001zm42.367 43.18l-6.508 6.51 10.646 4.132z"/></g></g></svg>